<svg xmlns="http://www.w3.org/2000/svg" viewBox="0 0 428.42 93.83"><defs><style>.cls-1{fill:#00214a;}.cls-2{fill:#fcee21;}.cls-3{stroke:#231f20;stroke-miterlimit:10;stroke-width:0.5px;}</style></defs><g id="Layer_2" data-name="Layer 2"><g id="Layer_1-2" data-name="Layer 1"><polygon class="cls-1" points="28.24 59.42 9.71 59.42 0 22.94 18.82 22.94 28.24 59.42"/><polygon class="cls-2" points="70.59 0 54.71 59.12 45.3 93.83 63.83 93.83 64.12 93.83 89.42 0 70.59 0"/><polygon class="cls-1" points="48.53 36.77 29.71 36.77 45 93.83 45.3 93.83 63.83 93.83 48.53 36.77"/><path class="cls-3" d="M127.57,28.61q.51,1.59,1.11,3.84T130,37.74c.46,2,.94,4.36,1.46,7s1,5.59,1.61,8.9h.09c.84-1.64,1.67-3.27,2.47-4.88s1.57-3.2,2.27-4.73,1.36-3,2-4.42,1.1-2.74,1.52-4a34.62,34.62,0,0,0,1-3.39,11.87,11.87,0,0,0,.36-2.67,5.65,5.65,0,0,0-1.9-4.51l.11-.25.53-.07a5.12,5.12,0,0,1,.56,0,5.31,5.31,0,0,1,1.37.18,3.44,3.44,0,0,1,1.21.56,3,3,0,0,1,.86,1.07,3.58,3.58,0,0,1,.34,1.66,10,10,0,0,1-.42,2.44c-.29,1-.69,2.25-1.22,3.65s-1.17,2.94-1.93,4.65-1.61,3.53-2.56,5.48-2,4-3.1,6.11S134.25,54.81,133,57l-2.24.18-.28,0q-2.11-10.82-3.61-17.59A75.48,75.48,0,0,0,124.3,30a9.22,9.22,0,0,0-.56-1.24,3.05,3.05,0,0,0-.66-.85,2.2,2.2,0,0,0-.86-.48,4.25,4.25,0,0,0-1.21-.15,9.34,9.34,0,0,0-1,.06c-.36.05-.77.1-1.24.18l-.15-1.22c1.41-.35,2.59-.63,3.54-.82a12.36,12.36,0,0,1,2.38-.28,2.91,2.91,0,0,1,1.15.19,2,2,0,0,1,.77.62,3.9,3.9,0,0,1,.57,1.06C127.2,27.49,127.38,28,127.57,28.61Z" transform="translate(0 -1.35)"/><path d="M153.65,55.75a8.24,8.24,0,0,1-3.58-3.64,12.58,12.58,0,0,1-1.23-5.8V43.62a14,14,0,0,1,1.19-6,8.46,8.46,0,0,1,3.43-3.82,10.65,10.65,0,0,1,5.43-1.31A8.59,8.59,0,0,1,164,34a9.27,9.27,0,0,1,3.23,4.32A18.5,18.5,0,0,1,168.33,45v1.57H152.25V42.84h11.62a8.08,8.08,0,0,0-1.5-4.54,4.24,4.24,0,0,0-3.48-1.62,5.06,5.06,0,0,0-4.13,1.75,7.5,7.5,0,0,0-1.46,4.94v3A6.22,6.22,0,0,0,154.86,51a6,6,0,0,0,4.44,1.59,7.5,7.5,0,0,0,2.83-.58,8.06,8.06,0,0,0,2.5-1.61l3.08,3.08a12.77,12.77,0,0,1-4,2.63,11.29,11.29,0,0,1-4.43.93A11.88,11.88,0,0,1,153.65,55.75Z" transform="translate(0 -1.35)"/><path d="M179.23,56.58a14.59,14.59,0,0,1-3.45-1.24,13.42,13.42,0,0,1-3-2.07l2.78-3.42a15.77,15.77,0,0,0,3.84,2.2,10.44,10.44,0,0,0,3.77.74,8.11,8.11,0,0,0,4.17-.86,2.85,2.85,0,0,0,1.39-2.59,2,2,0,0,0-.76-1.72,4.27,4.27,0,0,0-1.88-.77c-.75-.13-1.81-.25-3.17-.36h-.39l-.4,0-.18,0h-.18a18.35,18.35,0,0,1-3.93-.67,5.33,5.33,0,0,1-2.68-1.85A6.19,6.19,0,0,1,174.12,40a7.88,7.88,0,0,1,1-4.2,6.28,6.28,0,0,1,3.07-2.52,13.63,13.63,0,0,1,5.13-.84,17.74,17.74,0,0,1,3.55.35,15.64,15.64,0,0,1,6.19,2.73L190.28,39a15.9,15.9,0,0,0-3.53-1.72,10.86,10.86,0,0,0-3.39-.57,6.47,6.47,0,0,0-3.59.81,2.79,2.79,0,0,0-1.19,2.45,1.67,1.67,0,0,0,.68,1.45A4,4,0,0,0,181,42c.69.11,1.67.2,2.94.28l.29,0,.31,0h.14a.31.31,0,0,1,.13,0,20.42,20.42,0,0,1,4.27.66A5.82,5.82,0,0,1,192,45a6.78,6.78,0,0,1,1.19,4.32,7.58,7.58,0,0,1-1.1,4.26,6.57,6.57,0,0,1-3.32,2.54,15.61,15.61,0,0,1-5.57.85A18,18,0,0,1,179.23,56.58Z" transform="translate(0 -1.35)"/><path d="M197.33,32.8h10.76V37H197.33Zm3.8,22.37a7.23,7.23,0,0,1-1.34-4.73V25.86h4.69V50.49a2.23,2.23,0,0,0,.34,1.34,1.17,1.17,0,0,0,1,.48h2.26v4.45h-2.72A5.26,5.26,0,0,1,201.13,55.17Z" transform="translate(0 -1.35)"/><path d="M218.63,55.75a8.27,8.27,0,0,1-3.57-3.64,12.58,12.58,0,0,1-1.23-5.8V43.62a14.17,14.17,0,0,1,1.18-6,8.48,8.48,0,0,1,3.44-3.82,10.64,10.64,0,0,1,5.42-1.31A8.59,8.59,0,0,1,229,34a9.2,9.2,0,0,1,3.23,4.32A18.28,18.28,0,0,1,233.32,45v1.57H217.23V42.84h11.63a8,8,0,0,0-1.51-4.54,4.22,4.22,0,0,0-3.48-1.62,5.06,5.06,0,0,0-4.12,1.75,7.45,7.45,0,0,0-1.46,4.94v3A6.22,6.22,0,0,0,219.85,51a5.94,5.94,0,0,0,4.44,1.59,7.41,7.41,0,0,0,2.82-.58,8.1,8.1,0,0,0,2.51-1.61l3.08,3.08a12.89,12.89,0,0,1-4,2.63,11.33,11.33,0,0,1-4.43.93A12,12,0,0,1,218.63,55.75Z" transform="translate(0 -1.35)"/><path d="M239.75,32.8h4.69V56.65h-4.69Zm14.48,9.4a5.47,5.47,0,0,0-1.31-3.91,4.83,4.83,0,0,0-3.68-1.38,4.9,4.9,0,0,0-3.55,1.22,4.56,4.56,0,0,0-1.25,3.42L244,37a8.46,8.46,0,0,1,2.88-3.34,7,7,0,0,1,3.94-1.17,7.41,7.41,0,0,1,6,2.54c1.42,1.69,2.13,4.09,2.13,7.18V56.65h-4.69Z" transform="translate(0 -1.35)"/><path d="M279.14,23.24h4.69V56.65h-4.69Zm2.34,29H300.6v4.46H281.48Z" transform="translate(0 -1.35)"/><path d="M305.66,23.24h4.69v4.68h-4.69Zm0,9.56h4.69V56.65h-4.69Z" transform="translate(0 -1.35)"/><path d="M317.47,32.8h4.69V56.65h-4.69Zm14.25,9.4a5.68,5.68,0,0,0-1.24-3.91A4.49,4.49,0,0,0,327,36.91a4.89,4.89,0,0,0-3.55,1.22,4.52,4.52,0,0,0-1.25,3.42L321.67,37a8.56,8.56,0,0,1,2.89-3.34,7,7,0,0,1,3.94-1.17,7.71,7.71,0,0,1,4.27,1.14,7.12,7.12,0,0,1,2.7,3.32,13.41,13.41,0,0,1,.93,5.26V56.65h-4.68Zm14.24,0a5.42,5.42,0,0,0-1.31-3.91A4.8,4.8,0,0,0,341,36.91a4.3,4.3,0,0,0-3.38,1.33A5.45,5.45,0,0,0,336.4,42l-.94-4.59a9.14,9.14,0,0,1,3-3.67,6.9,6.9,0,0,1,4.08-1.3,8.16,8.16,0,0,1,4.4,1.14,7.15,7.15,0,0,1,2.78,3.32,13.22,13.22,0,0,1,.95,5.26V56.65H346Z" transform="translate(0 -1.35)"/><path d="M357.78,23.24h4.68v4.68h-4.68Zm0,9.56h4.68V56.65h-4.68Z" transform="translate(0 -1.35)"/><path d="M367.75,32.8H378.5V37H367.75Zm3.8,22.37a7.23,7.23,0,0,1-1.34-4.73V25.86h4.69V50.49a2.23,2.23,0,0,0,.34,1.34,1.17,1.17,0,0,0,1,.48h2.25v4.45h-2.71A5.26,5.26,0,0,1,371.55,55.17Z" transform="translate(0 -1.35)"/><path d="M389.05,55.75a8.27,8.27,0,0,1-3.57-3.64,12.58,12.58,0,0,1-1.23-5.8V43.62a14,14,0,0,1,1.18-6,8.48,8.48,0,0,1,3.44-3.82,10.64,10.64,0,0,1,5.42-1.31,8.59,8.59,0,0,1,5.1,1.5,9.2,9.2,0,0,1,3.23,4.32A18.49,18.49,0,0,1,403.74,45v1.57H387.65V42.84h11.63a8,8,0,0,0-1.51-4.54,4.22,4.22,0,0,0-3.48-1.62,5,5,0,0,0-4.12,1.75,7.45,7.45,0,0,0-1.46,4.94v3A6.22,6.22,0,0,0,390.27,51a5.93,5.93,0,0,0,4.43,1.59,7.46,7.46,0,0,0,2.83-.58A8.1,8.1,0,0,0,400,50.35l3.07,3.08a12.73,12.73,0,0,1-4,2.63,11.34,11.34,0,0,1-4.44.93A11.91,11.91,0,0,1,389.05,55.75Z" transform="translate(0 -1.35)"/><path d="M413.26,55.93a7.25,7.25,0,0,1-2.82-3.33,12.92,12.92,0,0,1-1-5.23V42.1a13.23,13.23,0,0,1,.94-5.26,7.21,7.21,0,0,1,2.75-3.32,7.92,7.92,0,0,1,4.33-1.14,7.09,7.09,0,0,1,3.87,1.11,8.13,8.13,0,0,1,2.84,3.1l-.48,4.87a5.77,5.77,0,0,0-.55-2.6,3.78,3.78,0,0,0-1.6-1.64,5.24,5.24,0,0,0-2.54-.56,4.56,4.56,0,0,0-3.6,1.44,6,6,0,0,0-1.27,4.07v5.2a5.8,5.8,0,0,0,1.27,4,4.6,4.6,0,0,0,3.6,1.41,5.13,5.13,0,0,0,2.54-.59,3.85,3.85,0,0,0,1.6-1.69,5.92,5.92,0,0,0,.55-2.64l.32,5a6.85,6.85,0,0,1-2.33,3,6.58,6.58,0,0,1-4,1.19A8.43,8.43,0,0,1,413.26,55.93Zm10.47-32.69h4.69V56.65h-4.69Z" transform="translate(0 -1.35)"/></g></g></svg>